# xmcd CD database file
#
# Track frame offsets:
#	150
#	49595
#	67687
#	98873
#	129624
#	142922
#	182109
#	204428
#	219205
#	234948
#	253590
#	275184
#	295688
#	312791
#	336907
#
# Disc length: 4642 seconds
#
# Revision: 0
# Processed by: cddbd v1.5.2PL0 Copyright (c) Steve Scherf et al.
# Submitted via: CDex 1.70beta2
#
DISCID=d812200f
DTITLE=Arturo Sandoval - Turi
DYEAR=1981
DGENRE=Jazz
TTITLE0=Turi
TTITLE1=Luna de Miel en Guamà
TTITLE2=Claudia
TTITLE3=Blues en dos Partes
TTITLE4=María
TTITLE5=Qué vas a Hacer el Resto de tu Vida?
TTITLE6=Lamento Borincano
TTITLE7=Como Llora una Estrella
TTITLE8=Te Quiero
TTITLE9=A mi Manera
TTITLE10=Penélope
TTITLE11=Almendra
TTITLE12=Aguas de Marzo
TTITLE13=Rabo de Nube
TTITLE14=La Bikina
EXTD=YEAR: 1981
EXTT0=
EXTT1=
EXTT2=
EXTT3=
EXTT4=
EXTT5=
EXTT6=
EXTT7=
EXTT8=
EXTT9=
EXTT10=
EXTT11=
EXTT12=
EXTT13=
EXTT14=
PLAYORDER=
